<svg xmlns="http://www.w3.org/2000/svg" xmlns:xlink="http://www.w3.org/1999/xlink" width="209" zoomAndPan="magnify" viewBox="0 0 156.75 53.25" height="71" preserveAspectRatio="xMidYMid meet" version="1.0"><defs><g/><clipPath id="19207c9179"><path d="M 91.140625 15 L 120 15 L 120 20 L 91.140625 20 Z M 91.140625 15 " clip-rule="nonzero"/></clipPath></defs><g fill="#ffffff" fill-opacity="1"><g transform="translate(8.120208, 36.172968)"><g><path d="M 2.566406 0 L 7.425781 0 L 7.425781 -5.957031 L 10.9375 -5.957031 C 16.101562 -5.957031 19.433594 -8.984375 19.433594 -13.660156 C 19.433594 -18.363281 16.101562 -21.390625 10.9375 -21.390625 L 2.566406 -21.390625 Z M 7.394531 -10.144531 L 7.394531 -17.140625 L 10.542969 -17.140625 C 13.078125 -17.140625 14.484375 -15.859375 14.484375 -13.628906 C 14.484375 -11.398438 13.078125 -10.144531 10.542969 -10.144531 Z M 7.394531 -10.144531 "/></g></g></g><g fill="#ffffff" fill-opacity="1"><g transform="translate(27.215236, 36.172968)"><g><path d="M 0.273438 0 L 5.46875 0 L 6.90625 -3.699219 L 15.398438 -3.699219 L 16.835938 0 L 22.03125 0 L 13.535156 -21.390625 L 8.769531 -21.390625 Z M 8.160156 -7.515625 L 11.152344 -15.339844 L 14.179688 -7.515625 Z M 8.160156 -7.515625 "/></g></g></g><g fill="#ffffff" fill-opacity="1"><g transform="translate(48.296183, 36.172968)"><g><path d="M 8.496094 0 L 13.261719 0 L 21.480469 -21.390625 L 16.285156 -21.390625 L 10.910156 -6.996094 L 8.34375 -13.78125 L 5.5 -21.390625 L 0.273438 -21.390625 Z M 8.496094 0 "/></g></g></g><g fill="#ffffff" fill-opacity="1"><g transform="translate(68.827181, 36.172968)"><g><path d="M 0.273438 0 L 5.46875 0 L 6.90625 -3.699219 L 15.398438 -3.699219 L 16.835938 0 L 22.03125 0 L 13.535156 -21.390625 L 8.769531 -21.390625 Z M 8.160156 -7.515625 L 11.152344 -15.339844 L 14.179688 -7.515625 Z M 8.160156 -7.515625 "/></g></g></g><g clip-path="url(#19207c9179)"><path fill="#2ea5e4" d="M 119.035156 17.472656 C 114.070312 16.367188 109.726562 17.71875 104.921875 18.757812 C 100.195312 19.78125 95.578125 19.191406 91.140625 17.269531 C 96.105469 18.375 100.449219 17.023438 105.253906 15.984375 C 109.984375 14.960938 114.597656 15.550781 119.035156 17.472656 " fill-opacity="1" fill-rule="nonzero"/></g><path fill="#8fd8ff" d="M 98.007812 14.777344 C 102.46875 9.808594 109.601562 6.804688 116.09375 9.058594 C 119.25 10.148438 122.199219 11.925781 125.527344 12.46875 C 129.132812 13.058594 132.4375 11.734375 135.464844 9.882812 L 135.609375 10.058594 C 133.464844 12.449219 130.628906 14.253906 127.390625 14.640625 C 123.847656 15.058594 120.484375 13.746094 117.230469 12.523438 C 114.308594 11.421875 111.667969 10.730469 108.523438 11.3125 C 104.910156 11.976562 101.488281 13.488281 98.148438 14.960938 L 98.007812 14.777344 " fill-opacity="1" fill-rule="nonzero"/><path fill="#8fd8ff" d="M 103.84375 14.695312 C 106.863281 12.402344 111.804688 12.933594 115.199219 13.609375 C 117.648438 14.097656 119.945312 14.992188 122.332031 15.699219 C 126.003906 16.792969 130.171875 16.601562 133.589844 14.773438 C 135.175781 13.925781 136.542969 12.703125 137.222656 10.996094 C 138.242188 8.433594 137.476562 5.742188 137.015625 3.152344 L 137.203125 3.023438 C 140.464844 5.089844 142.210938 9.273438 141.011719 13.003906 C 139.660156 17.222656 135.304688 19.503906 131.089844 19.6875 C 124.824219 19.957031 119.910156 16.15625 114.132812 14.554688 C 111.148438 13.722656 106.804688 13.015625 103.988281 14.875 L 103.84375 14.695312 " fill-opacity="1" fill-rule="nonzero"/><g fill="#ffffff" fill-opacity="1"><g transform="translate(89.7642, 36.172968)"><g><path d="M 2.324219 0 L 6.96875 0 L 6.96875 -8.402344 C 6.96875 -10.9375 8.371094 -12.496094 10.511719 -12.496094 C 12.496094 -12.496094 13.6875 -11.09375 13.6875 -8.738281 L 13.6875 0 L 18.332031 0 L 18.332031 -9.226562 C 18.332031 -13.660156 15.796875 -16.46875 11.613281 -16.46875 C 9.472656 -16.46875 7.546875 -15.738281 6.265625 -14.238281 L 5.773438 -16.042969 L 2.324219 -16.042969 Z M 2.324219 0 "/></g></g></g><g fill="#ffffff" fill-opacity="1"><g transform="translate(108.889786, 36.172968)"><g><path d="M 7.667969 0.304688 C 10.054688 0.304688 12.007812 -0.457031 13.382812 -1.863281 L 13.902344 0 L 17.355469 0 L 17.355469 -9.65625 C 17.355469 -13.902344 14.484375 -16.46875 9.6875 -16.46875 C 5.589844 -16.46875 2.902344 -14.515625 2.324219 -11.03125 L 6.785156 -11.03125 C 7.058594 -12.160156 8.21875 -12.925781 9.71875 -12.925781 C 11.550781 -12.925781 12.804688 -11.886719 12.804688 -10.296875 L 12.804688 -9.5625 L 6.996094 -9.5625 C 3.667969 -9.5625 1.527344 -7.640625 1.527344 -4.675781 C 1.527344 -1.589844 3.878906 0.304688 7.667969 0.304688 Z M 6.109375 -4.859375 C 6.109375 -5.957031 7.027344 -6.660156 8.433594 -6.660156 L 12.832031 -6.660156 C 12.742188 -4.492188 11.0625 -3.023438 8.738281 -3.023438 C 7.148438 -3.023438 6.109375 -3.757812 6.109375 -4.859375 Z M 6.109375 -4.859375 "/></g></g></g></svg>